<mxfile host="app.diagrams.net" modified="2022-02-02T13:33:49.699Z" agent="5.0 (X11)" etag="KWsll3cMDqqAnzyei0uo" version="16.5.2" type="github">
  <diagram id="t3EWiVwUvF7SmmPXYktw" name="Page-1">
    <mxGraphModel dx="1422" dy="796" grid="1" gridSize="10" guides="1" tooltips="1" connect="1" arrows="1" fold="1" page="1" pageScale="1" pageWidth="827" pageHeight="1169" math="0" shadow="0">
      <root>
        <mxCell id="0" />
        <mxCell id="1" parent="0" />
        <mxCell id="D0npfCrVtdF0pB81JI64-3" value="user" style="swimlane;fontStyle=0;childLayout=stackLayout;horizontal=1;startSize=26;horizontalStack=0;resizeParent=1;resizeParentMax=0;resizeLast=0;collapsible=1;marginBottom=0;align=center;fontSize=14;" parent="1" vertex="1">
          <mxGeometry x="80" y="240" width="160" height="176" as="geometry" />
        </mxCell>
        <mxCell id="D0npfCrVtdF0pB81JI64-4" value="PK: id" style="text;strokeColor=#6c8ebf;fillColor=#dae8fc;spacingLeft=4;spacingRight=4;overflow=hidden;rotatable=0;points=[[0,0.5],[1,0.5]];portConstraint=eastwest;fontSize=12;" parent="D0npfCrVtdF0pB81JI64-3" vertex="1">
          <mxGeometry y="26" width="160" height="30" as="geometry" />
        </mxCell>
        <mxCell id="D0npfCrVtdF0pB81JI64-6" value="password: varchar | bytes" style="text;strokeColor=none;fillColor=none;spacingLeft=4;spacingRight=4;overflow=hidden;rotatable=0;points=[[0,0.5],[1,0.5]];portConstraint=eastwest;fontSize=12;" parent="D0npfCrVtdF0pB81JI64-3" vertex="1">
          <mxGeometry y="56" width="160" height="30" as="geometry" />
        </mxCell>
        <mxCell id="D0npfCrVtdF0pB81JI64-7" value="email: varchar" style="text;strokeColor=none;fillColor=none;spacingLeft=4;spacingRight=4;overflow=hidden;rotatable=0;points=[[0,0.5],[1,0.5]];portConstraint=eastwest;fontSize=12;" parent="D0npfCrVtdF0pB81JI64-3" vertex="1">
          <mxGeometry y="86" width="160" height="30" as="geometry" />
        </mxCell>
        <mxCell id="_WX12jAoZObMtjHYHUED-1" value="FK: physical_person_id" style="text;strokeColor=#9673a6;fillColor=#e1d5e7;spacingLeft=4;spacingRight=4;overflow=hidden;rotatable=0;points=[[0,0.5],[1,0.5]];portConstraint=eastwest;fontSize=12;" vertex="1" parent="D0npfCrVtdF0pB81JI64-3">
          <mxGeometry y="116" width="160" height="30" as="geometry" />
        </mxCell>
        <mxCell id="_WX12jAoZObMtjHYHUED-2" value="FK: juridical_person_id" style="text;strokeColor=#9673a6;fillColor=#e1d5e7;spacingLeft=4;spacingRight=4;overflow=hidden;rotatable=0;points=[[0,0.5],[1,0.5]];portConstraint=eastwest;fontSize=12;" vertex="1" parent="D0npfCrVtdF0pB81JI64-3">
          <mxGeometry y="146" width="160" height="30" as="geometry" />
        </mxCell>
        <mxCell id="_WX12jAoZObMtjHYHUED-11" value="" style="endArrow=classic;html=1;rounded=0;entryX=0;entryY=0.5;entryDx=0;entryDy=0;startArrow=none;" edge="1" parent="1" source="_WX12jAoZObMtjHYHUED-12" target="_WX12jAoZObMtjHYHUED-5">
          <mxGeometry width="50" height="50" relative="1" as="geometry">
            <mxPoint x="240" y="370" as="sourcePoint" />
            <mxPoint x="410" y="260" as="targetPoint" />
            <Array as="points">
              <mxPoint x="320" y="101" />
            </Array>
          </mxGeometry>
        </mxCell>
        <mxCell id="_WX12jAoZObMtjHYHUED-12" value="1:1" style="text;html=1;strokeColor=none;fillColor=none;align=center;verticalAlign=middle;whiteSpace=wrap;rounded=0;" vertex="1" parent="1">
          <mxGeometry x="290" y="250" width="60" height="30" as="geometry" />
        </mxCell>
        <mxCell id="_WX12jAoZObMtjHYHUED-13" value="" style="endArrow=none;html=1;rounded=0;entryX=0.5;entryY=1;entryDx=0;entryDy=0;" edge="1" parent="1" target="_WX12jAoZObMtjHYHUED-12">
          <mxGeometry width="50" height="50" relative="1" as="geometry">
            <mxPoint x="240" y="370" as="sourcePoint" />
            <mxPoint x="360" y="101" as="targetPoint" />
            <Array as="points">
              <mxPoint x="320" y="370" />
            </Array>
          </mxGeometry>
        </mxCell>
        <mxCell id="_WX12jAoZObMtjHYHUED-15" value="" style="endArrow=classic;html=1;rounded=0;entryX=1;entryY=0.5;entryDx=0;entryDy=0;startArrow=none;" edge="1" parent="1" target="D0npfCrVtdF0pB81JI64-4">
          <mxGeometry width="50" height="50" relative="1" as="geometry">
            <mxPoint x="280" y="240" as="sourcePoint" />
            <mxPoint x="410" y="260" as="targetPoint" />
            <Array as="points">
              <mxPoint x="280" y="281" />
            </Array>
          </mxGeometry>
        </mxCell>
        <mxCell id="_WX12jAoZObMtjHYHUED-16" value="1:1" style="text;html=1;strokeColor=none;fillColor=none;align=center;verticalAlign=middle;whiteSpace=wrap;rounded=0;" vertex="1" parent="1">
          <mxGeometry x="250" y="210" width="60" height="30" as="geometry" />
        </mxCell>
        <mxCell id="_WX12jAoZObMtjHYHUED-17" value="" style="endArrow=none;html=1;rounded=0;exitX=0;exitY=0.5;exitDx=0;exitDy=0;entryX=0.5;entryY=0;entryDx=0;entryDy=0;" edge="1" parent="1" source="_WX12jAoZObMtjHYHUED-14" target="_WX12jAoZObMtjHYHUED-16">
          <mxGeometry width="50" height="50" relative="1" as="geometry">
            <mxPoint x="360" y="191" as="sourcePoint" />
            <mxPoint x="240" y="281" as="targetPoint" />
            <Array as="points">
              <mxPoint x="280" y="191" />
            </Array>
          </mxGeometry>
        </mxCell>
        <mxCell id="_WX12jAoZObMtjHYHUED-26" value="" style="endArrow=classic;html=1;rounded=0;entryX=1;entryY=0.5;entryDx=0;entryDy=0;exitX=0.5;exitY=0;exitDx=0;exitDy=0;startArrow=none;" edge="1" parent="1" source="_WX12jAoZObMtjHYHUED-27" target="D0npfCrVtdF0pB81JI64-4">
          <mxGeometry width="50" height="50" relative="1" as="geometry">
            <mxPoint x="360" y="460" as="sourcePoint" />
            <mxPoint x="410" y="410" as="targetPoint" />
            <Array as="points">
              <mxPoint x="280" y="281" />
            </Array>
          </mxGeometry>
        </mxCell>
        <mxCell id="_WX12jAoZObMtjHYHUED-27" value="1:1" style="text;html=1;strokeColor=none;fillColor=none;align=center;verticalAlign=middle;whiteSpace=wrap;rounded=0;" vertex="1" parent="1">
          <mxGeometry x="250" y="470" width="60" height="30" as="geometry" />
        </mxCell>
        <mxCell id="_WX12jAoZObMtjHYHUED-28" value="" style="endArrow=none;html=1;rounded=0;exitX=0;exitY=0.5;exitDx=0;exitDy=0;entryX=0.5;entryY=1;entryDx=0;entryDy=0;" edge="1" parent="1" source="_WX12jAoZObMtjHYHUED-24" target="_WX12jAoZObMtjHYHUED-27">
          <mxGeometry width="50" height="50" relative="1" as="geometry">
            <mxPoint x="360" y="561" as="sourcePoint" />
            <mxPoint x="280" y="480" as="targetPoint" />
            <Array as="points">
              <mxPoint x="280" y="701" />
            </Array>
          </mxGeometry>
        </mxCell>
        <mxCell id="_WX12jAoZObMtjHYHUED-30" value="1:1" style="text;html=1;strokeColor=none;fillColor=none;align=center;verticalAlign=middle;whiteSpace=wrap;rounded=0;" vertex="1" parent="1">
          <mxGeometry x="290" y="386" width="30" height="30" as="geometry" />
        </mxCell>
        <mxCell id="_WX12jAoZObMtjHYHUED-31" value="" style="endArrow=none;html=1;rounded=0;exitX=1;exitY=0.5;exitDx=0;exitDy=0;entryX=0;entryY=0.5;entryDx=0;entryDy=0;" edge="1" parent="1" source="_WX12jAoZObMtjHYHUED-2" target="_WX12jAoZObMtjHYHUED-30">
          <mxGeometry width="50" height="50" relative="1" as="geometry">
            <mxPoint x="240" y="401" as="sourcePoint" />
            <mxPoint x="360" y="471" as="targetPoint" />
            <Array as="points" />
          </mxGeometry>
        </mxCell>
        <mxCell id="_WX12jAoZObMtjHYHUED-32" value="" style="endArrow=classic;html=1;rounded=0;exitX=0.5;exitY=1;exitDx=0;exitDy=0;entryX=0;entryY=0.5;entryDx=0;entryDy=0;" edge="1" parent="1" source="_WX12jAoZObMtjHYHUED-30" target="_WX12jAoZObMtjHYHUED-20">
          <mxGeometry width="50" height="50" relative="1" as="geometry">
            <mxPoint x="360" y="460" as="sourcePoint" />
            <mxPoint x="410" y="410" as="targetPoint" />
            <Array as="points">
              <mxPoint x="305" y="611" />
            </Array>
          </mxGeometry>
        </mxCell>
        <mxCell id="_WX12jAoZObMtjHYHUED-33" value="" style="group" vertex="1" connectable="0" parent="1">
          <mxGeometry x="360" y="570" width="300" height="146" as="geometry" />
        </mxCell>
        <mxCell id="_WX12jAoZObMtjHYHUED-19" value="juridical_person" style="swimlane;fontStyle=0;childLayout=stackLayout;horizontal=1;startSize=26;horizontalStack=0;resizeParent=1;resizeParentMax=0;resizeLast=0;collapsible=1;marginBottom=0;align=center;fontSize=14;" vertex="1" parent="_WX12jAoZObMtjHYHUED-33">
          <mxGeometry width="160" height="146" as="geometry" />
        </mxCell>
        <mxCell id="_WX12jAoZObMtjHYHUED-20" value="PK: id" style="text;strokeColor=#6c8ebf;fillColor=#dae8fc;spacingLeft=4;spacingRight=4;overflow=hidden;rotatable=0;points=[[0,0.5],[1,0.5]];portConstraint=eastwest;fontSize=12;" vertex="1" parent="_WX12jAoZObMtjHYHUED-19">
          <mxGeometry y="26" width="160" height="30" as="geometry" />
        </mxCell>
        <mxCell id="_WX12jAoZObMtjHYHUED-21" value="name: varchar | nullable" style="text;strokeColor=none;fillColor=none;spacingLeft=4;spacingRight=4;overflow=hidden;rotatable=0;points=[[0,0.5],[1,0.5]];portConstraint=eastwest;fontSize=12;" vertex="1" parent="_WX12jAoZObMtjHYHUED-19">
          <mxGeometry y="56" width="160" height="30" as="geometry" />
        </mxCell>
        <mxCell id="_WX12jAoZObMtjHYHUED-22" value="description: varchar | nullable" style="text;strokeColor=none;fillColor=none;spacingLeft=4;spacingRight=4;overflow=hidden;rotatable=0;points=[[0,0.5],[1,0.5]];portConstraint=eastwest;fontSize=12;" vertex="1" parent="_WX12jAoZObMtjHYHUED-19">
          <mxGeometry y="86" width="160" height="30" as="geometry" />
        </mxCell>
        <mxCell id="_WX12jAoZObMtjHYHUED-24" value="FK: user_id" style="text;strokeColor=#9673a6;fillColor=#e1d5e7;spacingLeft=4;spacingRight=4;overflow=hidden;rotatable=0;points=[[0,0.5],[1,0.5]];portConstraint=eastwest;fontSize=12;" vertex="1" parent="_WX12jAoZObMtjHYHUED-19">
          <mxGeometry y="116" width="160" height="30" as="geometry" />
        </mxCell>
        <mxCell id="_WX12jAoZObMtjHYHUED-25" value="NB: Might be removed " style="rounded=0;whiteSpace=wrap;html=1;fillColor=#fff2cc;strokeColor=#d6b656;" vertex="1" parent="_WX12jAoZObMtjHYHUED-33">
          <mxGeometry x="160" y="116" width="140" height="30" as="geometry" />
        </mxCell>
        <mxCell id="_WX12jAoZObMtjHYHUED-34" value="" style="group" vertex="1" connectable="0" parent="1">
          <mxGeometry x="360" y="60" width="300" height="146" as="geometry" />
        </mxCell>
        <mxCell id="_WX12jAoZObMtjHYHUED-4" value="physical_person" style="swimlane;fontStyle=0;childLayout=stackLayout;horizontal=1;startSize=26;horizontalStack=0;resizeParent=1;resizeParentMax=0;resizeLast=0;collapsible=1;marginBottom=0;align=center;fontSize=14;" vertex="1" parent="_WX12jAoZObMtjHYHUED-34">
          <mxGeometry width="160" height="146" as="geometry" />
        </mxCell>
        <mxCell id="_WX12jAoZObMtjHYHUED-5" value="PK: id" style="text;strokeColor=#6c8ebf;fillColor=#dae8fc;spacingLeft=4;spacingRight=4;overflow=hidden;rotatable=0;points=[[0,0.5],[1,0.5]];portConstraint=eastwest;fontSize=12;" vertex="1" parent="_WX12jAoZObMtjHYHUED-4">
          <mxGeometry y="26" width="160" height="30" as="geometry" />
        </mxCell>
        <mxCell id="_WX12jAoZObMtjHYHUED-6" value="first_name: varchar" style="text;strokeColor=none;fillColor=none;spacingLeft=4;spacingRight=4;overflow=hidden;rotatable=0;points=[[0,0.5],[1,0.5]];portConstraint=eastwest;fontSize=12;" vertex="1" parent="_WX12jAoZObMtjHYHUED-4">
          <mxGeometry y="56" width="160" height="30" as="geometry" />
        </mxCell>
        <mxCell id="_WX12jAoZObMtjHYHUED-7" value="last_name: varchar" style="text;strokeColor=none;fillColor=none;spacingLeft=4;spacingRight=4;overflow=hidden;rotatable=0;points=[[0,0.5],[1,0.5]];portConstraint=eastwest;fontSize=12;" vertex="1" parent="_WX12jAoZObMtjHYHUED-4">
          <mxGeometry y="86" width="160" height="30" as="geometry" />
        </mxCell>
        <mxCell id="_WX12jAoZObMtjHYHUED-14" value="FK: user_id" style="text;strokeColor=#9673a6;fillColor=#e1d5e7;spacingLeft=4;spacingRight=4;overflow=hidden;rotatable=0;points=[[0,0.5],[1,0.5]];portConstraint=eastwest;fontSize=12;" vertex="1" parent="_WX12jAoZObMtjHYHUED-4">
          <mxGeometry y="116" width="160" height="30" as="geometry" />
        </mxCell>
        <mxCell id="_WX12jAoZObMtjHYHUED-18" value="NB: Might be removed " style="rounded=0;whiteSpace=wrap;html=1;fillColor=#fff2cc;strokeColor=#d6b656;" vertex="1" parent="_WX12jAoZObMtjHYHUED-34">
          <mxGeometry x="160" y="116" width="140" height="30" as="geometry" />
        </mxCell>
      </root>
    </mxGraphModel>
  </diagram>
</mxfile>
